PathFileType	4	(x/y/z)	S05_BK_Cal_T01
DataRate	CameraRate	NumFrames	NumMarkers	Units	OrigDataRate	OrigDataStartFrame	OrigNumFrames
240	240	6	50	mm	240	1201	2400
Frame#	Time	Sternum			R.Acromium			L.Acromium			Top.Head			R.ASIS			L.ASIS			R.PSIS			L.PSIS			R.Great.Tro			L.Great.Tro			R.Iliac.Crest			L.Iliac.Crest			V.Sacral			R.Thigh.Upper.Post			R.Thigh.Lower.Ant			R.Thigh.Lower.Post			R.Thigh.Upper.Ant			R.Knee.Lat			R.Knee.Med			R.Shank.Upper.Post			R.Shank.Lower.Ant			R.Shank.Lower.Post			R.Shank.Upper.Ant			R.Ankle.Lat			R.Ankle.Med			R.Heel.Upper			R.Heel.Med			R.Heel.Lat			R.Toe.Lat			R.Toe.Med			R.Toe.Tip			L.Thigh.Upper.Post			L.Thigh.Lower.Ant			L.Thigh.Lower.Post			L.Thigh.Upper.Ant			L.Knee.Lat			L.Shank.Upper.Post			L.Shank.Lower.Ant			L.Shank.Lower.Post			L.Shank.Upper.Ant			L.Ankle.Lat			L.Ankle.Med			L.Heel.Upper			L.Heel.Med			L.Heel.Lat			L.Toe.Lat			L.Toe.Med			L.Toe.Tip			Cervical.Spine			Back			
		X1	Y1	Z1	X2	Y2	Z2	X3	Y3	Z3	X4	Y4	Z4	X5	Y5	Z5	X6	Y6	Z6	X7	Y7	Z7	X8	Y8	Z8	X9	Y9	Z9	X10	Y10	Z10	X11	Y11	Z11	X12	Y12	Z12	X13	Y13	Z13	X14	Y14	Z14	X15	Y15	Z15	X16	Y16	Z16	X17	Y17	Z17	X18	Y18	Z18	X19	Y19	Z19	X20	Y20	Z20	X21	Y21	Z21	X22	Y22	Z22	X23	Y23	Z23	X24	Y24	Z24	X25	Y25	Z25	X26	Y26	Z26	X27	Y27	Z27	X28	Y28	Z28	X29	Y29	Z29	X30	Y30	Z30	X31	Y31	Z31	X32	Y32	Z32	X33	Y33	Z33	X34	Y34	Z34	X35	Y35	Z35	X36	Y36	Z36	X37	Y37	Z37	X38	Y38	Z38	X39	Y39	Z39	X40	Y40	Z40	X41	Y41	Z41	X42	Y42	Z42	X43	Y43	Z43	X44	Y44	Z44	X45	Y45	Z45	X46	Y46	Z46	X47	Y47	Z47	X48	Y48	Z48	X49	Y49	Z49	X50	Y50	Z50	

1201	5	510.95	1242.1	325.02	424.52	1497.4	483.5	408.17	1506.5	143.56	427.97	1819.4	319.92	433.83	989.57	454.09	444.87	991.74	204.42	236.66	1015.2	359.87	241.82	1016.1	267.34	352.4	912.69	515.22	362.13	915.04	124.67	354.56	1078.1	488.39	364.78	1073.8	155.9	226.5	977.46	325.65	446.34	704.77	531.7	513.67	643.18	485.79	453.73	615.25	516.77	501.53	731.25	500.08	464.56	520.05	505.62	469.34	495.27	377.62	347.62	299.47	516.57	395.68	222.56	514.39	331.8	224.26	505.16	413.04	298.69	524.46	355.33	123.72	506.63	361.23	143.47	412.81	273.36	75.304	455.93	281.46	41.541	428.97	283.6	48.913	493.99	452.02	36.856	534.55	478.91	40.809	412.66	545.98	57.328	453.6	414.56	681.37	113.38	508.06	625.33	133.14	444.49	590.95	124.58	486.12	713.29	122.2	468.1	505.25	125.45	367.74	327.94	117.38	421.34	256.98	119.56	350.81	257.37	131.71	433.59	326.61	109.79	345.35	117.98	134.76	381.52	125.75	222.65	278.68	68.432	186.25	291.06	43.606	218.18	281.32	40.909	157.32	462.29	39.173	98.096	488.39	51.02	216.65	551.18	60.017	159.73	363.51	1551.8	321.98	250.87	1278.9	323.39
1202	5.0042	510.97	1242.1	325.03	424.53	1497.4	483.51	408.18	1506.6	143.57	428	1819.4	319.91	433.85	989.58	454.1	444.9	991.75	204.43	236.69	1015.2	359.86	241.86	1016.1	267.34	352.41	912.7	515.23	362.17	915.04	124.68	354.57	1078.2	488.4	364.82	1073.8	155.9	226.53	977.47	325.65	446.34	704.78	531.72	513.67	643.19	485.8	453.73	615.26	516.78	501.54	731.25	500.1	464.55	520.06	505.63	469.34	495.27	377.63	347.61	299.47	516.57	395.67	222.56	514.4	331.8	224.26	505.17	413.04	298.69	524.48	355.32	123.72	506.63	361.23	143.47	412.81	273.36	75.304	455.93	281.46	41.542	428.98	283.6	48.913	493.99	452.02	36.856	534.55	478.91	40.811	412.66	545.98	57.328	453.6	414.58	681.38	113.39	508.08	625.33	133.14	444.5	590.96	124.58	486.14	713.3	122.21	468.11	505.25	125.44	367.74	327.95	117.37	421.34	256.98	119.55	350.81	257.37	131.71	433.59	326.61	109.78	345.34	117.98	134.76	381.52	125.75	222.65	278.68	68.431	186.25	291.06	43.606	218.18	281.32	40.909	157.32	462.29	39.173	98.095	488.39	51.021	216.65	551.18	60.018	159.73	363.52	1551.9	321.99	250.9	1278.9	323.39
1203	5.0083	511	1242.2	325.04	424.53	1497.4	483.52	408.19	1506.6	143.58	428.03	1819.4	319.9	433.87	989.58	454.1	444.94	991.75	204.44	236.71	1015.2	359.86	241.89	1016.1	267.34	352.43	912.71	515.23	362.2	915.05	124.68	354.59	1078.2	488.4	364.85	1073.8	155.9	226.56	977.48	325.65	446.34	704.78	531.73	513.66	643.19	485.82	453.72	615.26	516.8	501.54	731.26	500.12	464.55	520.06	505.64	469.33	495.27	377.64	347.61	299.46	516.58	395.67	222.56	514.4	331.8	224.26	505.17	413.03	298.69	524.49	355.32	123.72	506.63	361.23	143.47	412.81	273.36	75.304	455.93	281.46	41.543	428.98	283.6	48.912	493.99	452.02	36.855	534.55	478.91	40.813	412.66	545.98	57.329	453.6	414.6	681.39	113.39	508.09	625.33	133.15	444.51	590.96	124.58	486.16	713.3	122.21	468.11	505.26	125.44	367.74	327.95	117.37	421.34	256.98	119.55	350.81	257.37	131.7	433.59	326.61	109.77	345.34	117.98	134.76	381.53	125.76	222.65	278.68	68.43	186.26	291.06	43.606	218.18	281.32	40.91	157.32	462.29	39.172	98.093	488.39	51.022	216.64	551.18	60.018	159.73	363.53	1551.9	322	250.92	1278.9	323.4
1204	5.0125	511.02	1242.2	325.06	424.54	1497.4	483.53	408.2	1506.6	143.59	428.06	1819.4	319.89	433.89	989.59	454.11	444.98	991.76	204.45	236.74	1015.2	359.86	241.93	1016.1	267.34	352.44	912.71	515.24	362.24	915.06	124.69	354.6	1078.2	488.41	364.89	1073.8	155.91	226.59	977.48	325.65	446.34	704.79	531.75	513.66	643.19	485.84	453.72	615.27	516.82	501.55	731.26	500.13	464.54	520.06	505.65	469.33	495.28	377.65	347.61	299.46	516.58	395.66	222.56	514.41	331.79	224.26	505.17	413.03	298.69	524.5	355.32	123.72	506.63	361.23	143.47	412.81	273.36	75.304	455.93	281.46	41.544	428.98	283.6	48.911	493.99	452.02	36.855	534.55	478.91	40.814	412.66	545.98	57.329	453.6	414.62	681.4	113.4	508.11	625.34	133.15	444.53	590.97	124.58	486.18	713.3	122.21	468.12	505.26	125.44	367.74	327.95	117.36	421.34	256.98	119.55	350.81	257.38	131.7	433.59	326.61	109.76	345.34	117.98	134.76	381.53	125.76	222.64	278.68	68.43	186.26	291.06	43.606	218.18	281.31	40.911	157.32	462.29	39.172	98.092	488.39	51.022	216.64	551.18	60.017	159.73	363.54	1551.9	322	250.94	1278.9	323.4
1205	5.0167	511.04	1242.2	325.07	424.54	1497.4	483.54	408.21	1506.6	143.6	428.08	1819.4	319.89	433.91	989.6	454.12	445.01	991.77	204.46	236.76	1015.2	359.86	241.96	1016.1	267.34	352.45	912.72	515.24	362.27	915.07	124.7	354.62	1078.2	488.42	364.93	1073.9	155.91	226.62	977.49	325.64	446.35	704.79	531.76	513.66	643.19	485.85	453.72	615.27	516.83	501.55	731.27	500.15	464.53	520.06	505.66	469.33	495.28	377.66	347.6	299.46	516.59	395.66	222.56	514.42	331.79	224.26	505.18	413.03	298.69	524.51	355.32	123.71	506.64	361.23	143.47	412.82	273.36	75.304	455.93	281.46	41.545	428.98	283.6	48.91	493.99	452.02	36.854	534.55	478.91	40.815	412.67	545.98	57.33	453.6	414.64	681.4	113.4	508.12	625.34	133.15	444.54	590.98	124.59	486.21	713.31	122.21	468.12	505.26	125.44	367.74	327.95	117.36	421.34	256.98	119.55	350.81	257.38	131.7	433.59	326.61	109.75	345.34	117.98	134.75	381.54	125.76	222.64	278.68	68.43	186.26	291.06	43.607	218.17	281.31	40.911	157.32	462.29	39.172	98.092	488.39	51.022	216.64	551.18	60.017	159.73	363.55	1551.9	322.01	250.97	1278.9	323.4
1206	5.0208	511.07	1242.2	325.09	424.55	1497.5	483.55	408.23	1506.6	143.61	428.1	1819.4	319.88	433.93	989.6	454.13	445.05	991.78	204.47	236.79	1015.2	359.86	242	1016.2	267.34	352.46	912.73	515.25	362.3	915.07	124.71	354.63	1078.2	488.42	364.96	1073.9	155.91	226.65	977.5	325.64	446.35	704.79	531.78	513.65	643.2	485.87	453.72	615.28	516.85	501.56	731.27	500.18	464.53	520.07	505.68	469.33	495.29	377.67	347.6	299.45	516.6	395.66	222.56	514.42	331.79	224.26	505.19	413.03	298.69	524.52	355.32	123.71	506.64	361.23	143.47	412.82	273.36	75.304	455.93	281.46	41.547	428.98	283.6	48.909	493.99	452.02	36.853	534.55	478.91	40.816	412.67	545.98	57.33	453.6	414.66	681.41	113.41	508.14	625.34	133.15	444.55	590.98	124.59	486.23	713.31	122.21	468.13	505.26	125.44	367.75	327.95	117.36	421.34	256.99	119.55	350.81	257.38	131.7	433.59	326.61	109.75	345.35	117.98	134.75	381.55	125.76	222.64	278.68	68.43	186.26	291.06	43.607	218.17	281.31	40.913	157.32	462.29	39.171	98.091	488.39	51.021	216.64	551.18	60.016	159.73	363.56	1551.9	322.02	250.99	1278.9	323.4
